<?xml version="1.0" encoding="utf-8"?>
<!-- Generator: Adobe Illustrator 21.0.0, SVG Export Plug-In . SVG Version: 6.00 Build 0)  -->
<svg version="1.1" id="Layer_1" xmlns="http://www.w3.org/2000/svg" xmlns:xlink="http://www.w3.org/1999/xlink" x="0px" y="0px"
	 viewBox="0 0 1024 1024" style="enable-background:new 0 0 1024 1024;" xml:space="preserve">
<style type="text/css">
	.st0{fill:#009688;}
</style>
<title></title>
<g id="icomoon-ignore">
</g>
<path class="st0" d="M462.4,1000.3L0,536.9l223.5-223.4c1.3,3.3,3,6.2,5,8.8l0-0.1c21.3,22.4,42.7,44.6,64.3,66.7
	c21.3,21.8,52.2,23,72.4,3.3c20.2-19.7,19.9-49.3-0.9-71.6c-24.2-25.8-48.6-51.5-72.2-76.4L511.5,23.7l220.2,223
	c-9.4,8.9-21.5,20.3-33.5,31.7c-13.6,12.8-27.4,25.4-40.8,38.4c-21.2,20.5-22.1,51.3-2.4,71.5c19.3,19.7,49.7,19.8,70.8-0.3
	c25.9-24.6,51.6-49.5,76.6-73.5l221.5,220L561.8,997.8c-0.3-2.1-0.6-4.6-0.7-7.1l0-0.1c0-96.8,0-193.6,0.1-290.5
	c0-3.9,0.5-9.1,2.9-11.5c26-26.7,52.5-53,81.1-81.6v187.7L904,535.3L798.3,429.3c-4.9,4.6-10.7,10-16.4,15.4
	c-54.5,51.6-135.2,50.5-185.5-2.5c-49.4-52-46.4-132.4,6.8-183.8c4.1-4,8-8.1,11-11.1l-102-102.4L406.9,250.6
	c33.1,28.8,55.2,65.7,52.4,113.7c-1.5,34.1-16.5,64.4-39.8,86l-0.1,0.1c-28.9,27.2-63.5,38.5-102.8,34.6c-39-3.8-69-24.3-95.3-56.1
	L117.6,534.8l260.2,260.8v-187c4.1,3.2,6.4,4.7,8.3,6.6c23.5,23.4,47.1,46.7,70.2,70.5c3.4,3.6,5.7,8.3,6.1,13.5l0,0.1
	c0.3,98,0.3,195.9,0.2,293.9c0,1.8-0.3,3.6-0.6,7.2L462.4,1000.3z"/>
</svg>
