<svg id="Layer_1" data-name="Layer 1" xmlns="http://www.w3.org/2000/svg" width="450.8193" height="428.9112" viewBox="0 0 450.8193 428.9112"><defs><style>.cls-1{fill:#fff;}</style></defs><title>logo</title><path class="cls-1" d="M684.8472,645H234.028V216.0888H684.8472Zm-247.0006-.84c.1269-1.5853.245-2.3732.2452-3.1611.01-42.8358.0477-85.6716-.1034-128.5069a9.5786,9.5786,0,0,0-2.6836-5.9481c-10.1157-10.3857-20.4307-20.5775-30.7075-30.8057-.8372-.8333-1.8642-1.4757-3.6488-2.8654v81.76L287.176,440.6169l45.3251-46.2962c11.4992,13.9011,24.6143,22.856,41.679,24.5306,17.1809,1.686,32.3287-3.25,44.9511-15.15a54.4779,54.4779,0,0,0,17.4163-37.6239c1.2374-21.0067-8.4385-37.1435-22.9152-49.723l46.0308-46.219,44.586,44.7557c-1.3,1.3208-3.01,3.1371-4.8028,4.8689-23.2532,22.4676-24.5656,57.608-2.9877,80.3444,21.99,23.171,57.3065,23.64,81.1267,1.0822,2.4965-2.3642,5.0151-4.7052,7.1588-6.7151l46.2147,46.3645L517.78,554.24V472.1651c-12.5025,12.51-24.0786,23.9917-35.4651,35.6579-1.0524,1.0783-1.2511,3.3331-1.2537,5.0426q-.098,63.4966-.0348,126.9935a27.8189,27.8189,0,0,0,.3049,3.1626L683.4131,440.4535l-96.8283-96.1781c-10.9356,10.5042-22.1664,21.3906-33.51,32.1577-9.2447,8.7746-22.53,8.7592-30.9525.1284-8.6255-8.8384-8.2316-22.3179,1.0269-31.2712,5.8695-5.676,11.8853-11.2007,17.83-16.7989,5.2816-4.9737,10.5556-9.9554,14.6718-13.8382l-96.2919-97.522-95.95,96.4523c10.3031,10.8983,20.9722,22.1078,31.5536,33.3994,9.1229,9.7352,9.2411,22.6873.4054,31.305-8.8575,8.6389-22.3467,8.0809-31.6651-1.44q-14.1629-14.47-28.11-29.15a14.6613,14.6613,0,0,1-2.187-3.8252L235.703,441.558Z" transform="translate(-234.028 -216.0888)"/><path d="M437.8466,644.16,235.703,441.558l97.7026-97.6844a14.6613,14.6613,0,0,0,2.187,3.8252q13.9459,14.6787,28.11,29.15c9.3184,9.52,22.8076,10.0785,31.6651,1.44,8.8357-8.6177,8.7175-21.57-.4054-31.305-10.5814-11.2916-21.25-22.5011-31.5536-33.3994l95.95-96.4523,96.2919,97.522c-4.1162,3.8828-9.39,8.8645-14.6718,13.8382-5.9448,5.5983-11.9606,11.1229-17.83,16.7989-9.2585,8.9533-9.6525,22.4328-1.0269,31.2712,8.423,8.6308,21.7078,8.6461,30.9525-.1284,11.3441-10.7672,22.5749-21.6535,33.51-32.1577l96.8283,96.1781L481.3318,643.0216a27.8189,27.8189,0,0,1-.3049-3.1626q-.0284-63.4968.0348-126.9935c.0026-1.7095.2013-3.9643,1.2537-5.0426,11.3865-11.6662,22.9626-23.1474,35.4651-35.6579V554.24L630.9588,440.8365,584.7441,394.472c-2.1438,2.01-4.6624,4.3509-7.1588,6.7151-23.82,22.5581-59.1364,22.0888-81.1267-1.0822-21.5779-22.7365-20.2655-57.8769,2.9877-80.3444,1.7924-1.7318,3.5031-3.5481,4.8028-4.8689l-44.586-44.7557-46.0308,46.219c14.4767,12.58,24.1526,28.7163,22.9152,49.723a54.4779,54.4779,0,0,1-17.4163,37.6239c-12.6224,11.9-27.77,16.8356-44.9511,15.15-17.0647-1.6746-30.18-10.63-41.679-24.5306L287.176,440.6169,400.9486,554.6322v-81.76c1.7846,1.39,2.8117,2.0321,3.6488,2.8654,10.2767,10.2282,20.5918,20.42,30.7075,30.8057a9.5786,9.5786,0,0,1,2.6836,5.9481c.151,42.8352.1137,85.6711.1034,128.5069C438.0916,641.7865,437.9736,642.5744,437.8466,644.16Z" transform="translate(-234.028 -216.0888)"/></svg>